<?xml version="1.0" encoding="utf-8"?>
<!-- Generator: Adobe Illustrator 18.0.0, SVG Export Plug-In . SVG Version: 6.00 Build 0)  -->
<!DOCTYPE svg PUBLIC "-//W3C//DTD SVG 1.1//EN" "http://www.w3.org/Graphics/SVG/1.1/DTD/svg11.dtd">
<svg version="1.1" id="圖層_1" xmlns="http://www.w3.org/2000/svg" xmlns:xlink="http://www.w3.org/1999/xlink" x="0px" y="0px"
	 viewBox="0 0 212 150" enable-background="new 0 0 212 150" xml:space="preserve">
<g>
	<g>
		<g>
			<rect x="53.3" y="99.9" fill="#DDDDDD" width="11" height="33"/>
		</g>
		<g>
			<rect x="53.3" y="99.9" fill="#B5B5B6" width="5" height="33"/>
		</g>
		<g>
			<path fill="#1D2029" d="M60.1,133.9h-7c-0.6,0-1.8-0.7-1.8-1.2v-33c0-0.6,1.3-0.8,1.8-0.8h12c0.6,0,0.2,0.2,0.2,0.8v12
				c0,0.6-0.4,1-1,1c-0.6,0-1-0.4-1-1v-10.8h-10v31h6.8c0.6,0,1,0.4,1,1S60.7,133.9,60.1,133.9z"/>
		</g>
	</g>
	<g>
		<g>
			<rect x="56.3" y="104.9" fill="#FFFFFF" width="4" height="3"/>
		</g>
		<g>
			<path fill="#1D2029" d="M61.3,108.4c0,0.3-0.2,0.5-0.5,0.5h-5c-0.3,0-0.5-0.2-0.5-0.5v-4c0-0.3,0.2-0.5,0.5-0.5h5
				c0.3,0,0.5,0.2,0.5,0.5V108.4z M56.3,107.9h4v-3h-4V107.9z"/>
		</g>
	</g>
	<g>
		<g>
			<rect x="56.3" y="111.9" fill="#FFFFFF" width="4" height="3"/>
		</g>
		<g>
			<path fill="#1D2029" d="M61.3,115.4c0,0.3-0.2,0.5-0.5,0.5h-5c-0.3,0-0.5-0.2-0.5-0.5v-4c0-0.3,0.2-0.5,0.5-0.5h5
				c0.3,0,0.5,0.2,0.5,0.5V115.4z M56.3,114.9h4v-3h-4V114.9z"/>
		</g>
	</g>
	<g>
		<g>
			<path fill="#FFFFFF" d="M53.3,130.9c0,1.1-0.9,2-2,2h-26c-1.1,0-2-0.9-2-2v-38c0-1.1,0.9-2,2-2h26c1.1,0,2,0.9,2,2V130.9z"/>
		</g>
		<g>
			<path fill="#1D2029" d="M54.3,130.9c0,1.7-1.3,3-3,3h-26c-1.7,0-3-1.3-3-3v-38c0-1.7,1.3-3,3-3h26c1.7,0,3,1.3,3,3V130.9z
				 M52.3,92.9c0-0.6-0.4-1-1-1h-26c-0.6,0-1,0.4-1,1v38c0,0.6,0.4,1,1,1h26c0.6,0,1-0.4,1-1V92.9z"/>
		</g>
	</g>
	<g>
		<g>
			<rect x="30.3" y="96.9" fill="#B9E1E8" width="3" height="3"/>
		</g>
		<g>
			<polyline fill="#A0CFDA" points="33.3,96.9 33.3,99.9 30.3,99.9 			"/>
		</g>
		<g>
			<path fill="#1D2029" d="M34.3,100.4c0,0.3-0.2,0.5-0.5,0.5h-4c-0.3,0-0.5-0.2-0.5-0.5v-4c0-0.3,0.2-0.5,0.5-0.5h4
				c0.3,0,0.5,0.2,0.5,0.5V100.4z M30.3,99.9h3v-3h-3V99.9z"/>
		</g>
	</g>
	<g>
		<g>
			<rect x="37.3" y="96.9" fill="#B9E1E8" width="3" height="3"/>
		</g>
		<g>
			<polyline fill="#A0CFDA" points="40.3,96.9 40.3,99.9 37.3,99.9 			"/>
		</g>
		<g>
			<path fill="#1D2029" d="M41.3,100.4c0,0.3-0.2,0.5-0.5,0.5h-4c-0.3,0-0.5-0.2-0.5-0.5v-4c0-0.3,0.2-0.5,0.5-0.5h4
				c0.3,0,0.5,0.2,0.5,0.5V100.4z M37.3,99.9h3v-3h-3V99.9z"/>
		</g>
	</g>
	<g>
		<g>
			<rect x="44.3" y="96.9" fill="#B9E1E8" width="3" height="3"/>
		</g>
		<g>
			<polyline fill="#A0CFDA" points="47.3,96.9 47.3,99.9 44.3,99.9 			"/>
		</g>
		<g>
			<path fill="#1D2029" d="M48.3,100.4c0,0.3-0.2,0.5-0.5,0.5h-4c-0.3,0-0.5-0.2-0.5-0.5v-4c0-0.3,0.2-0.5,0.5-0.5h4
				c0.3,0,0.5,0.2,0.5,0.5V100.4z M44.3,99.9h3v-3h-3V99.9z"/>
		</g>
	</g>
	<g>
		<g>
			<rect x="30.3" y="103.9" fill="#B9E1E8" width="3" height="3"/>
		</g>
		<g>
			<polyline fill="#A0CFDA" points="33.3,103.9 33.3,106.9 30.3,106.9 			"/>
		</g>
		<g>
			<path fill="#1D2029" d="M34.3,107.4c0,0.3-0.2,0.5-0.5,0.5h-4c-0.3,0-0.5-0.2-0.5-0.5v-4c0-0.3,0.2-0.5,0.5-0.5h4
				c0.3,0,0.5,0.2,0.5,0.5V107.4z M30.3,106.9h3v-3h-3V106.9z"/>
		</g>
	</g>
	<g>
		<g>
			<rect x="37.3" y="103.9" fill="#B9E1E8" width="3" height="3"/>
		</g>
		<g>
			<polyline fill="#A0CFDA" points="40.3,103.9 40.3,106.9 37.3,106.9 			"/>
		</g>
		<g>
			<path fill="#1D2029" d="M41.3,107.4c0,0.3-0.2,0.5-0.5,0.5h-4c-0.3,0-0.5-0.2-0.5-0.5v-4c0-0.3,0.2-0.5,0.5-0.5h4
				c0.3,0,0.5,0.2,0.5,0.5V107.4z M37.3,106.9h3v-3h-3V106.9z"/>
		</g>
	</g>
	<g>
		<g>
			<rect x="44.3" y="103.9" fill="#B9E1E8" width="3" height="3"/>
		</g>
		<g>
			<polyline fill="#A0CFDA" points="47.3,103.9 47.3,106.9 44.3,106.9 			"/>
		</g>
		<g>
			<path fill="#1D2029" d="M48.3,107.4c0,0.3-0.2,0.5-0.5,0.5h-4c-0.3,0-0.5-0.2-0.5-0.5v-4c0-0.3,0.2-0.5,0.5-0.5h4
				c0.3,0,0.5,0.2,0.5,0.5V107.4z M44.3,106.9h3v-3h-3V106.9z"/>
		</g>
	</g>
	<g>
		<g>
			<rect x="30.3" y="110.9" fill="#B9E1E8" width="3" height="3"/>
		</g>
		<g>
			<polyline fill="#A0CFDA" points="33.3,110.9 33.3,113.9 30.3,113.9 			"/>
		</g>
		<g>
			<path fill="#1D2029" d="M34.3,114.4c0,0.3-0.2,0.5-0.5,0.5h-4c-0.3,0-0.5-0.2-0.5-0.5v-4c0-0.3,0.2-0.5,0.5-0.5h4
				c0.3,0,0.5,0.2,0.5,0.5V114.4z M30.3,113.9h3v-3h-3V113.9z"/>
		</g>
	</g>
	<g>
		<g>
			<rect x="37.3" y="110.9" fill="#B9E1E8" width="3" height="3"/>
		</g>
		<g>
			<polyline fill="#A0CFDA" points="40.3,110.9 40.3,113.9 37.3,113.9 			"/>
		</g>
		<g>
			<path fill="#1D2029" d="M41.3,114.4c0,0.3-0.2,0.5-0.5,0.5h-4c-0.3,0-0.5-0.2-0.5-0.5v-4c0-0.3,0.2-0.5,0.5-0.5h4
				c0.3,0,0.5,0.2,0.5,0.5V114.4z M37.3,113.9h3v-3h-3V113.9z"/>
		</g>
	</g>
	<g>
		<g>
			<rect x="44.3" y="110.9" fill="#B9E1E8" width="3" height="3"/>
		</g>
		<g>
			<polyline fill="#A0CFDA" points="47.3,110.9 47.3,113.9 44.3,113.9 			"/>
		</g>
		<g>
			<path fill="#1D2029" d="M48.3,114.4c0,0.3-0.2,0.5-0.5,0.5h-4c-0.3,0-0.5-0.2-0.5-0.5v-4c0-0.3,0.2-0.5,0.5-0.5h4
				c0.3,0,0.5,0.2,0.5,0.5V114.4z M44.3,113.9h3v-3h-3V113.9z"/>
		</g>
	</g>
	<g>
		<g>
			<rect x="30.3" y="117.9" fill="#B9E1E8" width="3" height="3"/>
		</g>
		<g>
			<polyline fill="#A0CFDA" points="33.3,117.9 33.3,120.9 30.3,120.9 			"/>
		</g>
		<g>
			<path fill="#1D2029" d="M34.3,121.4c0,0.3-0.2,0.5-0.5,0.5h-4c-0.3,0-0.5-0.2-0.5-0.5v-4c0-0.3,0.2-0.5,0.5-0.5h4
				c0.3,0,0.5,0.2,0.5,0.5V121.4z M30.3,120.9h3v-3h-3V120.9z"/>
		</g>
	</g>
	<g>
		<g>
			<rect x="37.3" y="117.9" fill="#B9E1E8" width="3" height="3"/>
		</g>
		<g>
			<polyline fill="#A0CFDA" points="40.3,117.9 40.3,120.9 37.3,120.9 			"/>
		</g>
		<g>
			<path fill="#1D2029" d="M41.3,121.4c0,0.3-0.2,0.5-0.5,0.5h-4c-0.3,0-0.5-0.2-0.5-0.5v-4c0-0.3,0.2-0.5,0.5-0.5h4
				c0.3,0,0.5,0.2,0.5,0.5V121.4z M37.3,120.9h3v-3h-3V120.9z"/>
		</g>
	</g>
	<g>
		<g>
			<rect x="44.3" y="117.9" fill="#B9E1E8" width="3" height="3"/>
		</g>
		<g>
			<polyline fill="#A0CFDA" points="47.3,117.9 47.3,120.9 44.3,120.9 			"/>
		</g>
		<g>
			<path fill="#1D2029" d="M48.3,121.4c0,0.3-0.2,0.5-0.5,0.5h-4c-0.3,0-0.5-0.2-0.5-0.5v-4c0-0.3,0.2-0.5,0.5-0.5h4
				c0.3,0,0.5,0.2,0.5,0.5V121.4z M44.3,120.9h3v-3h-3V120.9z"/>
		</g>
	</g>
	<g>
		<g>
			<g>
				<rect x="31.3" y="126.9" fill="#B9E1E8" width="7" height="5"/>
			</g>
			<g>
				<path fill="#1D2029" d="M39.3,132.4c0,0.3-0.2,0.5-0.5,0.5h-8c-0.3,0-0.5-0.2-0.5-0.5v-6c0-0.3,0.2-0.5,0.5-0.5h8
					c0.3,0,0.5,0.2,0.5,0.5V132.4z M31.3,131.9h7v-5h-7V131.9z"/>
			</g>
		</g>
		<g>
			<g>
				<rect x="39.3" y="126.9" fill="#A0CFDA" width="7" height="5"/>
			</g>
			<g>
				<path fill="#1D2029" d="M47.3,132.4c0,0.3-0.2,0.5-0.5,0.5h-8c-0.3,0-0.5-0.2-0.5-0.5v-6c0-0.3,0.2-0.5,0.5-0.5h8
					c0.3,0,0.5,0.2,0.5,0.5V132.4z M39.3,131.9h7v-5h-7V131.9z"/>
			</g>
		</g>
	</g>
	<g>
		<g>
			<path fill="#FFFFFF" d="M34.4,130.1c-0.1,0-0.2,0-0.2-0.1c-0.1-0.1-0.1-0.3,0-0.5l1.6-1.6c0.1-0.1,0.3-0.1,0.5,0
				c0.1,0.1,0.1,0.3,0,0.5l-1.6,1.6C34.6,130.1,34.5,130.1,34.4,130.1z"/>
		</g>
	</g>
	<g>
		<g>
			<path fill="#FFFFFF" d="M36.1,130.1c-0.1,0-0.2,0-0.2-0.1c-0.1-0.1-0.1-0.3,0-0.5l1.6-1.6c0.1-0.1,0.3-0.1,0.5,0
				c0.1,0.1,0.1,0.3,0,0.5l-1.6,1.6C36.3,130.1,36.2,130.1,36.1,130.1z"/>
		</g>
	</g>
	<g>
		<g>
			<path fill="#FFFFFF" d="M41.4,130.1c-0.1,0-0.2,0-0.2-0.1c-0.1-0.1-0.1-0.3,0-0.5l1.6-1.6c0.1-0.1,0.3-0.1,0.5,0
				c0.1,0.1,0.1,0.3,0,0.5l-1.6,1.6C41.6,130.1,41.5,130.1,41.4,130.1z"/>
		</g>
	</g>
	<g>
		<g>
			<path fill="#FFFFFF" d="M43.1,130.1c-0.1,0-0.2,0-0.2-0.1c-0.1-0.1-0.1-0.3,0-0.5l1.6-1.6c0.1-0.1,0.3-0.1,0.5,0
				c0.1,0.1,0.1,0.3,0,0.5l-1.6,1.6C43.3,130.1,43.2,130.1,43.1,130.1z"/>
		</g>
	</g>
	<g>
		<g>
			<g>
				<path fill="#8ABA29" d="M64,125.7c-2.2,0-3.3-1.6-2.5-3.6l2.1-5.1c0.8-2,2.2-2,3.1,0l2.1,5c0.8,2-0.3,3.6-2.5,3.6L64,125.7
					L64,125.7z"/>
			</g>
			<g>
				<path fill="#1D2029" d="M66.4,126.7H64c-1.4,0-2.6-0.5-3.2-1.5c-0.6-1-0.7-2.2-0.2-3.5l2.1-5.1c0.8-1.9,1.9-2.1,2.5-2.1
					c0.6,0,1.7,0.3,2.5,2.1l2.1,5c0.5,1.3,0.5,2.5-0.2,3.5C69,126.2,67.8,126.7,66.4,126.7z M65.2,116.5c0,0-0.3,0.2-0.6,0.9
					l-2.1,5.1c-0.3,0.6-0.3,1.2,0,1.6c0.3,0.4,0.8,0.6,1.6,0.6h2.4c0.7,0,1.3-0.2,1.6-0.6c0.3-0.4,0.3-1,0-1.6l-2.1-5
					C65.5,116.7,65.2,116.5,65.2,116.5z"/>
			</g>
		</g>
		<g>
			<path fill="#1D2029" d="M65.1,132.7c-0.6,0-1-0.4-1-1v-5c0-0.6,0.4-1,1-1c0.6,0,1,0.4,1,1v5C66.1,132.3,65.7,132.7,65.1,132.7z"
				/>
		</g>
	</g>
</g>
<g>
	<g>
		<path fill="none" stroke="#1D2029" stroke-linecap="round" stroke-linejoin="round" stroke-miterlimit="10" d="M60,24.3
			c0.4,0.4,0.8,0.8,1.2,1.3s0.7,0.9,1.1,1.4c0.3,0.5,0.6,1,0.9,1.5c0.3,0.5,0.5,1,0.8,1.6c0.2,0.5,0.4,1.1,0.6,1.7
			c0.2,0.6,0.3,1.1,0.4,1.7c0.1,0.6,0.2,1.2,0.2,1.8c0.1,0.6,0,1.2,0,1.8v0.1v0.1v0.1v0.1v0.1v0.1v0.1v0.1v0.1V38v0.1v0.1v0.1v0.1
			v0.1v0.1"/>
		<path fill="none" stroke="#1D2029" stroke-linecap="round" stroke-linejoin="round" stroke-miterlimit="10" d="M28.2,38.5
			L28.2,38.5v-0.2v-0.1v-0.1V38V38v-0.1v-0.1v-0.1v-0.1v-0.1v-0.1v-0.1v-0.1v-0.1V37c0-0.6,0.1-1.2,0.1-1.8c0.1-0.6,0.2-1.2,0.3-1.8
			c0.1-0.6,0.3-1.2,0.5-1.7c0.2-0.6,0.4-1.1,0.6-1.7c0.2-0.5,0.5-1.1,0.8-1.6c0.3-0.5,0.6-1,0.9-1.5c0.3-0.5,0.7-0.9,1-1.4
			c0.4-0.4,0.8-0.9,1.2-1.3c0.4-0.4,0.8-0.8,1.3-1.2c0.4-0.4,0.9-0.7,1.4-1s1-0.6,1.5-0.9c0.5-0.3,1-0.5,1.6-0.8
			c0.5-0.2,1.1-0.4,1.7-0.6c0.6-0.2,1.1-0.3,1.7-0.4c0.6-0.1,1.2-0.2,1.8-0.3c0.6-0.1,1.2-0.1,1.8-0.1h0.1h0.1h0.1h0.1h0.1h0.1h0.1
			h0.1h0.1H47H47h0.1h0.1h0.1h0.1h0.1c0.6,0,1.2,0,1.8,0.1c0.6,0.1,1.2,0.2,1.8,0.3c0.6,0.1,1.1,0.3,1.7,0.4"/>
		<polyline fill="none" stroke="#1D2029" stroke-linecap="round" stroke-linejoin="round" stroke-miterlimit="10" points="
			54.5,20.6 56.1,22.2 57,20.4 58.8,23.3 		"/>
	</g>
	<g>
		
			<linearGradient id="SVGID_1_" gradientUnits="userSpaceOnUse" x1="277.2786" y1="690.3132" x2="290.0812" y2="680.8705" gradientTransform="matrix(1 0 0 1 -257.5996 -656.7904)">
			<stop  offset="0" style="stop-color:#D31577"/>
			<stop  offset="1" style="stop-color:#F8F6B8"/>
		</linearGradient>
		<path fill="url(#SVGID_1_)" d="M33.7,28.7c0,0,0.3-7-5.1-7.4c-5.4-0.4-4.2,6.3-5.2,9c-1,2.7-4.3,3-5.5,2.7
			C16.7,32.8,28.4,38.8,33.7,28.7z"/>
		<path fill="#1D2029" d="M24.2,35.6c-2.2,0-7.4-1-7.4-2.6v-1l1.2,0l0.2,0c0.1,0,0.3,0,0.6,0c0.3,0,3-0.1,3.8-2.2
			c0.2-0.6,0.3-1.5,0.4-2.5c0.3-3,0.8-7.5,5.8-7.1c5.1,0.4,6.2,5.7,6.1,8.5l0,0.2l-0.1,0.2C31.8,34.5,27.4,35.6,24.2,35.6z
			 M21.8,33.4c0.7,0.1,1.5,0.2,2.4,0.2c3.8,0,6.6-1.7,8.5-5.1c0-1.1-0.2-5.9-4.2-6.2c-2.8-0.2-3.3,1.9-3.6,5.3
			c-0.1,1.1-0.2,2.1-0.5,2.9C23.8,31.9,22.9,32.8,21.8,33.4z"/>
	</g>
	<g>
		
			<linearGradient id="SVGID_2_" gradientUnits="userSpaceOnUse" x1="329.5117" y1="689.9637" x2="319.4283" y2="682.1302" gradientTransform="matrix(1 0 0 1 -257.5996 -656.7904)">
			<stop  offset="0" style="stop-color:#2096D5"/>
			<stop  offset="1" style="stop-color:#F8F6B8"/>
		</linearGradient>
		<path fill="url(#SVGID_2_)" d="M58.8,28.7c0,0-0.3-7,5.1-7.4c5.4-0.4,4.2,6.3,5.2,9s4.3,3,5.5,2.7C75.8,32.8,64.1,38.8,58.8,28.7z
			"/>
		<path fill="#1D2029" d="M68.3,35.6c-3.2,0-7.6-1.1-10.4-6.4L57.8,29l0-0.2c-0.1-2.8,1-8.1,6.1-8.5c5-0.4,5.5,4.2,5.8,7.1
			c0.1,1,0.2,1.9,0.4,2.5c0.7,2.1,3.5,2.2,3.8,2.2l0,0c0.3,0,0.5-0.3,0.6-0.3l0.3-0.3h1l0,1.2C75.7,34.3,70.5,35.6,68.3,35.6z
			 M59.8,28.5c1.9,3.4,4.7,5.1,8.5,5.1c0.9,0,1.7-0.1,2.4-0.2c-1.1-0.5-2-1.4-2.5-2.8c-0.3-0.8-0.4-1.8-0.5-2.9
			c-0.4-3.4-0.8-5.6-3.6-5.3C60,22.6,59.8,27.4,59.8,28.5z"/>
	</g>
	<g>
		<path fill="#EFC1A2" d="M61.7,46.1c0,7.9-6.5,14.4-14.7,14.4h-0.3c-8.2,0-15-6.4-15-14.4v-9.2c0-7.9,6.9-14.4,15-14.4H47
			c8.2,0,14.7,6.4,14.7,14.4V46.1z"/>
		<path fill="#ECB195" d="M47,22.5h-0.3c-0.5,0-1,0-1.4,0.1c7.5,0.7,13.4,6.8,13.4,14.3v9.2c0,7.5-5.8,13.6-13.4,14.3
			c0.5,0,1,0.1,1.4,0.1H47c8.2,0,14.7-6.4,14.7-14.4v-9.2C61.7,29,55.2,22.5,47,22.5z"/>
		<path fill="#1D2029" d="M47,61.5h-0.3c-8.8,0-16-6.9-16-15.4v-9.2c0-8.5,7.3-15.4,16-15.4H47c8.7,0,15.7,6.9,15.7,15.4v9.2
			C62.7,54.6,55.7,61.5,47,61.5z M46.8,23.5c-7.7,0-14,6-14,13.4v9.2c0,7.4,6.4,13.4,14,13.4H47c7.6,0,13.7-6,13.7-13.4v-9.2
			c0-7.4-6.1-13.4-13.7-13.4H46.8z"/>
		<path fill="#ECB195" d="M45.8,24.5c0,0-2.4,18.7,14.9,19.6C60.7,44.1,63.7,25.5,45.8,24.5z"/>
		<path fill="#ECB195" d="M47.8,24.5c0,0,2.4,18.7-14.9,19.6C32.8,44.1,29.8,25.5,47.8,24.5z"/>
	</g>
	<g>
		<path fill="#FFFFFF" stroke="#9FA0A0" stroke-width="2" stroke-miterlimit="10" d="M61.8,46.5"/>
	</g>
	<g>
		<circle fill="#1D2029" cx="40.8" cy="45.9" r="1.3"/>
	</g>
	<g>
		<path fill="#1D2029" d="M47.3,56.1c-0.5,0-1,0-1.4-0.1c-0.5-0.1-0.9-0.2-1.3-0.4c-0.4-0.2-0.8-0.4-1.2-0.6c-0.4-0.3-0.7-0.5-1-0.9
			c-0.2-0.2-0.2-0.5,0-0.7s0.5-0.2,0.7,0c0.3,0.3,0.6,0.5,0.9,0.7c0.3,0.2,0.7,0.4,1,0.6c0.4,0.2,0.7,0.3,1.1,0.3
			c0.8,0.2,1.6,0.2,2.4,0c0.4-0.1,0.8-0.2,1.1-0.3c0.4-0.2,0.7-0.3,1-0.6c0.3-0.2,0.6-0.5,0.9-0.7c0.2-0.2,0.5-0.2,0.7,0
			c0.2,0.2,0.2,0.5,0,0.7c-0.3,0.3-0.7,0.6-1,0.9c-0.4,0.3-0.8,0.5-1.2,0.6c-0.4,0.2-0.9,0.3-1.3,0.4C48.3,56,47.8,56.1,47.3,56.1z"
			/>
	</g>
	<path fill="#F5E829" stroke="#1D2029" stroke-miterlimit="10" d="M65.2,46.9c0,0.9-0.7,1.6-1.5,1.6l0,0c-0.8,0-1.5-0.7-1.5-1.6
		v-7.5c0-0.9,0.7-1.6,1.5-1.6l0,0c0.8,0,1.5,0.7,1.5,1.6V46.9z"/>
	<path fill="#2096D5" stroke="#1D2029" stroke-miterlimit="10" d="M65.6,38.8c2.3,0,4.2,1.9,4.2,4.2s-1.9,4.2-4.2,4.2"/>
	<path fill="#D31577" stroke="#1D2029" stroke-miterlimit="10" d="M28.5,38.8c-2.3,0-4.2,1.9-4.2,4.2s1.9,4.2,4.2,4.2"/>
	<path fill="#F5E829" stroke="#1D2029" stroke-miterlimit="10" d="M28.2,46.9c0,0.9,0.7,1.6,1.5,1.6l0,0c0.8,0,1.5-0.7,1.5-1.6v-7.5
		c0-0.9-0.7-1.6-1.5-1.6l0,0c-0.8,0-1.5,0.7-1.5,1.6V46.9z"/>
	<polyline fill="none" stroke="#1D2029" stroke-linecap="round" stroke-linejoin="round" points="54.4,47.1 52.1,45.8 54.4,44.5 	
		"/>
	<polyline fill="none" stroke="#1D2029" stroke-linecap="round" stroke-linejoin="round" points="38.2,48.8 37.6,50 36.9,48.8 	"/>
	<g>
		<path fill="#F8F6B8" d="M46.8,22.5c0,0,2.4,18.7-14.9,19.6C31.8,42.1,28.8,23.5,46.8,22.5z"/>
		<path fill="#1D2029" d="M31,43.2l-0.1-0.9c-0.1-0.4-1.4-9.1,3.5-15.2c2.8-3.4,6.9-5.3,12.4-5.6l0.9-0.1l0.1,0.9
			c0,0.4,1.1,9.3-4,15.4C41,41,37,42.9,31.9,43.1L31,43.2z M45.8,23.6c-4.4,0.4-7.7,2-9.9,4.8c-3.5,4.3-3.4,10.4-3.2,12.7
			c4.1-0.4,7.3-1.9,9.5-4.6C45.9,32.1,46,25.9,45.8,23.6z"/>
	</g>
	<g>
		<path fill="#F8F6B8" d="M46.8,22.5c0,0-2.4,18.7,14.9,19.6C61.7,42.1,64.7,23.5,46.8,22.5z"/>
		<path fill="#1D2029" d="M62.5,43.2l-0.9,0c-5.1-0.3-9.2-2.1-11.9-5.4c-5.1-6.1-4-15-4-15.4l0.1-0.9l0.9,0.1
			c5.4,0.3,9.6,2.2,12.4,5.6c4.9,6.1,3.6,14.8,3.5,15.2L62.5,43.2z M47.7,23.6c-0.1,2.3,0,8.6,3.6,12.9c2.2,2.6,5.4,4.2,9.5,4.6
			c0.2-2.3,0.3-8.4-3.2-12.7C55.4,25.6,52,24,47.7,23.6z"/>
	</g>
</g>
<g>
	<g>
		<rect x="170.4" y="20.4" fill="#3D2B1D" width="6" height="46"/>
		<rect x="174.4" y="20.4" fill="#40220F" width="2" height="46"/>
		<path fill="none" stroke="#1D2029" stroke-width="2" stroke-miterlimit="10" d="M176.4,64.4c0,1.1-0.9,2-2,2h-2c-1.1,0-2-0.9-2-2
			v-42c0-1.1,0.9-2,2-2h2c1.1,0,2,0.9,2,2V64.4z"/>
	</g>
	<g>
		<path fill="#FFFFFF" d="M192.4,46.4c0,1.1-0.9,2-2,2h-34c-1.1,0-2-0.9-2-2v-20c0-1.1,0.9-2,2-2h34c1.1,0,2,0.9,2,2V46.4z"/>
		<path fill="#F0EFEF" d="M192.4,25.4c0-0.6-0.4-1-1-1l0,0c-0.6,0-1,0.4-1,1v22c0,0.6,0.4,1,1,1l0,0c0.6,0,1-0.4,1-1V25.4z"/>
		<path fill="none" stroke="#1D2029" stroke-width="2" stroke-miterlimit="10" d="M192.4,46.4c0,1.1-0.9,2-2,2h-34c-1.1,0-2-0.9-2-2
			v-20c0-1.1,0.9-2,2-2h34c1.1,0,2,0.9,2,2V46.4z"/>
	</g>
	<g>
		<path fill="#E99415" d="M160.7,27.9c0.4-0.7,1-0.7,1.3,0s1.3,1.5,2.2,1.6c0.8,0.1,1,0.7,0.4,1.3c-0.6,0.6-1,1.7-0.8,2.5
			c0.1,0.8-0.3,1.2-1.1,0.8c-0.7-0.4-1.9-0.4-2.7,0c-0.7,0.4-1.2,0-1.1-0.8c0.1-0.8-0.2-2-0.8-2.5c-0.6-0.6-0.4-1.2,0.4-1.3
			C159.3,29.3,160.3,28.6,160.7,27.9z"/>
		<path fill="none" stroke="#1D2029" stroke-miterlimit="10" d="M160.7,27.9c0.4-0.7,1-0.7,1.3,0s1.3,1.5,2.2,1.6
			c0.8,0.1,1,0.7,0.4,1.3c-0.6,0.6-1,1.7-0.8,2.5c0.1,0.8-0.3,1.2-1.1,0.8c-0.7-0.4-1.9-0.4-2.7,0c-0.7,0.4-1.2,0-1.1-0.8
			c0.1-0.8-0.2-2-0.8-2.5c-0.6-0.6-0.4-1.2,0.4-1.3C159.3,29.3,160.3,28.6,160.7,27.9z"/>
	</g>
	
		<line fill="none" stroke="#E99415" stroke-width="2" stroke-linecap="round" stroke-linejoin="round" stroke-miterlimit="10" x1="170.4" y1="29.4" x2="187.4" y2="29.4"/>
	
		<line fill="none" stroke="#E99415" stroke-width="2" stroke-linecap="round" stroke-linejoin="round" stroke-miterlimit="10" x1="170.4" y1="32.4" x2="187.4" y2="32.4"/>
	
		<line fill="none" stroke="#9FA0A0" stroke-linecap="round" stroke-linejoin="round" stroke-miterlimit="10" x1="159.4" y1="37.9" x2="176.4" y2="37.9"/>
	
		<line fill="none" stroke="#9FA0A0" stroke-linecap="round" stroke-linejoin="round" stroke-miterlimit="10" x1="180.4" y1="37.9" x2="187.4" y2="37.9"/>
	
		<line fill="none" stroke="#9FA0A0" stroke-linecap="round" stroke-linejoin="round" stroke-miterlimit="10" x1="159.4" y1="40.9" x2="187.4" y2="40.9"/>
	
		<line fill="none" stroke="#9FA0A0" stroke-linecap="round" stroke-linejoin="round" stroke-miterlimit="10" x1="169.4" y1="43.9" x2="187.4" y2="43.9"/>
	
		<line fill="none" stroke="#9FA0A0" stroke-linecap="round" stroke-linejoin="round" stroke-miterlimit="10" x1="159.4" y1="43.9" x2="167.4" y2="43.9"/>
	<path fill="#1D2029" d="M154,21.6c0.5,0,0.8-0.4,0.8-0.8v-5.9c0-0.5-0.4-0.8-0.8-0.8c-0.5,0-0.8,0.4-0.8,0.8v5.9
		C153.2,21.3,153.6,21.6,154,21.6z"/>
	<path fill="#1D2029" d="M143.3,24.9c-0.5,0-0.8,0.4-0.8,0.8c0,0.5,0.4,0.8,0.8,0.8h5.9c0.5,0,0.8-0.4,0.8-0.8
		c0-0.5-0.4-0.8-0.8-0.8H143.3z"/>
	<path fill="#1D2029" d="M150,22.8c0.2,0.2,0.4,0.2,0.6,0.2s0.4-0.1,0.6-0.2c0.3-0.3,0.3-0.8,0-1.2l-2-2c-0.3-0.3-0.8-0.3-1.2,0
		c-0.3,0.3-0.3,0.8,0,1.2L150,22.8z"/>
</g>
<g>
	<g>
		<g>
			<g>
				<g>
					<polygon fill="#FFFFFF" points="115.2,52.2 101.9,52.2 99.1,22.2 118.1,22.2 					"/>
				</g>
				<g>
					<polygon fill="#DDDDDD" points="116.1,22.2 113.2,52.2 115.2,52.2 118.1,22.2 					"/>
				</g>
				<g>
					<polygon fill="#DDDDDD" points="101.2,22.2 104.1,52.2 102.1,52.2 99.2,22.2 					"/>
				</g>
				<g>
					<path fill="#1D2029" d="M115.2,53.2h-13.3c-0.5,0-0.9-0.4-1-0.9l-2.9-30c0-0.3,0.1-0.6,0.3-0.8c0.2-0.2,0.5-0.3,0.7-0.3h19
						c0.3,0,0.5,0.1,0.7,0.3c0.2,0.2,0.3,0.5,0.3,0.8l-2.8,30C116.2,52.8,115.7,53.2,115.2,53.2z M102.8,51.2h11.5l2.7-28h-16.8
						L102.8,51.2z"/>
				</g>
			</g>
			<g>
				<g>
					<polygon fill="#E9EAE2" points="119.6,23.2 97.6,23.2 98.6,21.2 118.6,21.2 					"/>
				</g>
				<g>
					<path fill="#1D2029" d="M119.6,23.2C119.6,23.2,119.6,23.2,119.6,23.2h-22c-0.2,0-0.3-0.1-0.4-0.2c-0.1-0.1-0.1-0.3,0-0.5l1-2
						c0.1-0.2,0.3-0.3,0.4-0.3h20c0.2,0,0.4,0.1,0.4,0.3l0.9,1.9c0.1,0.1,0.1,0.2,0.1,0.3C120.1,22.9,119.9,23.2,119.6,23.2z
						 M98.4,22.2h20.4l-0.5-1H98.9L98.4,22.2z"/>
				</g>
			</g>
			<g>
				<g>
					<polygon fill="#E9EAE2" points="118.3,19.2 98.8,19.2 99.7,16.2 117.4,16.2 					"/>
				</g>
				<g>
					<polygon fill="#B5B4B0" points="117.1,16.2 115.7,16.2 116.9,19.2 118.3,19.2 					"/>
				</g>
				<g>
					<polygon fill="#B5B4B0" points="99.9,16.2 101.3,16.2 100.1,19.2 98.7,19.2 					"/>
				</g>
				<g>
					<path fill="#1D2029" d="M118.3,19.2C118.3,19.2,118.3,19.2,118.3,19.2H98.8c-0.2,0-0.3-0.1-0.4-0.2c-0.1-0.1-0.1-0.3-0.1-0.4
						l0.9-3c0.1-0.2,0.3-0.4,0.5-0.4h17.7c0.2,0,0.4,0.1,0.5,0.4l0.8,2.9c0,0.1,0.1,0.2,0.1,0.3C118.8,18.9,118.6,19.2,118.3,19.2z
						 M99.5,18.2h18.2l-0.6-2h-17L99.5,18.2z"/>
				</g>
			</g>
			<g>
				<g>
					<polygon fill="#E9EAE2" points="97.6,19.2 119.6,19.2 118.6,21.2 98.6,21.2 					"/>
				</g>
				<g>
					<path fill="#1D2029" d="M118.6,21.2h-20c-0.2,0-0.4-0.1-0.4-0.3l-1-2c-0.1-0.2-0.1-0.3,0-0.5c0.1-0.1,0.3-0.2,0.4-0.2h22
						c0.2,0,0.3,0.1,0.4,0.2c0.1,0.1,0.1,0.3,0,0.5l-1,2C118.9,21,118.8,21.2,118.6,21.2z M98.9,20.2h19.4l0.5-1H98.4L98.9,20.2z"/>
				</g>
			</g>
		</g>
		<g>
			<g>
				<path fill="#0B7353" d="M108.6,24.8c-3.4,0-6.2,2.8-6.2,6.2c0,3.4,2.8,6.2,6.2,6.2c3.4,0,6.2-2.8,6.2-6.2
					C114.7,27.6,112,24.8,108.6,24.8z M108.6,36.9c-3.3,0-5.9-2.7-5.9-5.9c0-3.3,2.7-5.9,5.9-5.9c3.3,0,5.9,2.7,5.9,5.9
					C114.5,34.3,111.8,36.9,108.6,36.9z"/>
			</g>
			<g>
				<path fill="#0B7353" d="M108.6,25.5c-3.1,0-5.5,2.5-5.5,5.5c0,3.1,2.5,5.5,5.5,5.5c3.1,0,5.5-2.5,5.5-5.5
					C114.1,28,111.7,25.5,108.6,25.5z M108.6,35.4c-2.4,0-4.4-2-4.4-4.4c0-2.4,2-4.4,4.4-4.4c2.4,0,4.4,2,4.4,4.4
					C113,33.4,111,35.4,108.6,35.4z"/>
			</g>
			<g>
				<path fill="#1D2029" d="M108.6,27.2c-2.1,0-3.7,1.7-3.7,3.7s1.7,3.7,3.7,3.7c2.1,0,3.7-1.7,3.7-3.7S110.7,27.2,108.6,27.2z
					 M110.2,32.7l-1.4-0.8l-1.4,0.8l0.3-1.6l-1.2-1.1l1.6-0.2l0.7-1.5l0.7,1.5L111,30l-1.2,1.1L110.2,32.7z"/>
			</g>
		</g>
	</g>
	<g>
		<g>
			<path fill="#C63934" d="M97,41.8c-1.1,0.3-2.3,0.3-3.4,0c-5.9-1.4-10.8-0.9-10.7,10.1c0,5.7,5.3,13,10.9,11.7c1-0.2,2-0.2,3,0
				c5.6,1.3,10.9-6.1,10.9-11.7C107.7,40.9,102.8,40.3,97,41.8z"/>
			<path fill="#1D2029" d="M98.1,64.8C98.1,64.8,98.1,64.8,98.1,64.8c-0.5,0-1-0.1-1.5-0.2c-0.8-0.2-1.8-0.2-2.6,0
				c-0.5,0.1-1,0.2-1.5,0.2c-5.7,0-10.6-7.1-10.6-12.9c0-4.8,0.9-8,2.7-9.9c1.2-1.3,2.9-1.9,5-1.9c1.2,0,2.6,0.2,4.2,0.6
				c1,0.2,2,0.2,2.9,0c1.7-0.4,3-0.6,4.2-0.6c2.1,0,3.8,0.6,5,1.9c1.8,1.9,2.7,5.1,2.7,9.9C108.6,57.7,103.7,64.8,98.1,64.8z
				 M95.3,62.5c0.6,0,1.2,0.1,1.7,0.2c0.3,0.1,0.7,0.1,1.1,0.1c4.4,0,8.6-6.1,8.6-10.9c0-4.2-0.7-7-2.1-8.4c-0.9-0.9-2-1.3-3.6-1.3
				c-1,0-2.3,0.2-3.8,0.5c-1.3,0.3-2.6,0.3-3.9,0c-1.5-0.4-2.7-0.5-3.8-0.5c-1.6,0-2.7,0.4-3.6,1.3c-1.4,1.4-2.1,4.3-2.1,8.4
				c0,4.8,4.2,10.9,8.6,10.9c0.4,0,0.7,0,1.1-0.1C94.1,62.5,94.7,62.5,95.3,62.5z"/>
		</g>
		<g>
			<path fill="#E95A55" d="M85.6,49.1c-0.3,0-0.5-0.2-0.5-0.5c0-3,2.2-5.4,4.9-5.4c0.3,0,0.5,0.2,0.5,0.5c0,0.3-0.2,0.5-0.5,0.5
				c-2.1,0-3.8,2-3.8,4.4C86.1,48.8,85.9,49.1,85.6,49.1z"/>
		</g>
		<g>
			<path fill="#4C312B" d="M95.2,43.8c-0.3,0-0.5-0.2-0.5-0.5c-0.1-2.3-1-5.2-3.2-6.4c-0.3-0.1-0.4-0.5-0.2-0.7
				c0.1-0.3,0.5-0.4,0.7-0.2c2.7,1.4,3.7,4.7,3.8,7.3C95.8,43.6,95.5,43.8,95.2,43.8C95.2,43.8,95.2,43.8,95.2,43.8z"/>
			<path fill="#1D2029" d="M95.3,44.8L95.3,44.8c-0.9,0-1.6-0.7-1.6-1.5c-0.1-2-0.8-4.5-2.7-5.5c-0.8-0.4-1-1.3-0.6-2.1
				c0.4-0.7,1.4-1,2.1-0.6c3.1,1.6,4.2,5.3,4.3,8.2c0,0.4-0.1,0.8-0.4,1.1C96.1,44.6,95.7,44.8,95.3,44.8L95.3,44.8z"/>
		</g>
		<g>
			<path fill="#94442F" d="M95.2,47.7c-1.5,0-2.9-0.6-3.9-1.6c-0.3-0.3-0.3-0.9,0-1.2c0.3-0.3,0.9-0.3,1.2,0
				c0.7,0.7,1.7,1.1,2.7,1.1c1,0,2-0.4,2.7-1.1c0.3-0.3,0.9-0.3,1.2,0c0.3,0.3,0.3,0.9,0,1.2C98,47.1,96.7,47.7,95.2,47.7z"/>
		</g>
		<g>
			<path fill="#639736" d="M94.7,40l0.3-2.2c0.3-2.3,2.2-4.2,4.5-4.5l2.2-0.3l-0.3,2.2c-0.3,2.4-2.2,4.2-4.5,4.5L94.7,40z"/>
			<path fill="#1D2029" d="M94.1,40.6l0.4-2.9c0.4-2.6,2.4-4.6,5-5l2.9-0.4l-0.4,2.9c-0.4,2.6-2.4,4.6-5,5L94.1,40.6z M101.2,33.5
				l-1.6,0.2c-2.1,0.3-3.8,2-4.1,4.1l-0.2,1.6l1.6-0.2c2.1-0.3,3.8-2,4.1-4.1L101.2,33.5z"/>
		</g>
	</g>
	<g>
		<path fill="#E9EAE2" d="M132.8,55.5c0.1,4.5-3.4,8.2-7.8,8.3l-17.8,0.5c-4.5,0.1-8.2-3.4-8.3-7.8l0-0.1c-0.1-4.5,3.4-8.2,7.8-8.3
			l17.8-0.5c4.5-0.1,8.2,3.4,8.3,7.8L132.8,55.5z"/>
		<path fill="#BCBBB7" d="M133.8,55.4c-0.1-4.5-3.9-8-8.3-7.8l-1.8,0.1c3.9,0.4,7,3.7,7.2,7.8l0,0.1c0.1,4.5-3.4,8.2-7.8,8.3
			L107,64.3c0.4,0,0.8,0.1,1.2,0.1l17.8-0.5c4.5-0.1,8-3.9,7.8-8.3L133.8,55.4z"/>
		<path fill="#BCBBB7" d="M98,55.4c0.1-4.5,3.9-8,8.3-7.8l1.8,0.1c-3.9,0.4-7,3.7-7.2,7.8l0,0.1c-0.1,4.5,3.4,8.2,7.8,8.3l15.9,0.5
			c-0.4,0-0.8,0.1-1.2,0.1l-17.8-0.5c-4.5-0.1-8-3.9-7.8-8.3L98,55.4z"/>
		<path fill="#1D2029" d="M106.9,65.4c-4.9,0-8.9-3.9-9.1-8.8l0-0.1c-0.2-5,3.8-9.2,8.8-9.4l18.1-0.6c4.9,0,8.9,3.9,9.1,8.8l0,0.1
			c0.1,2.4-0.8,4.7-2.5,6.5c-1.7,1.8-3.9,2.8-6.3,2.9L106.9,65.4z M124.7,48.5l-0.2,0l-17.8,0.5c-3.9,0.1-7,3.4-6.9,7.3l0,0.1
			c0.1,3.9,3.2,6.9,7.1,6.9l0.2,0l17.8-0.5c1.9-0.1,3.6-0.8,4.9-2.2c1.3-1.4,2-3.2,1.9-5.1l0-0.1C131.7,51.6,128.6,48.5,124.7,48.5z
			"/>
	</g>
	<g>
		<polygon fill="#1D2029" points="111,54.8 108.3,54.8 108.2,52.1 105.5,52.2 105.6,54.9 102.9,55 103,57.7 105.7,57.6 105.8,60.3 
			108.5,60.3 108.4,57.6 111.1,57.5 		"/>
	</g>
	<g>
		<path fill="#0C68AC" d="M125.5,52.2c0,1-0.7,1.8-1.7,1.8c-1,0-1.8-0.7-1.8-1.7c0-1,0.7-1.8,1.7-1.8
			C124.7,50.4,125.5,51.2,125.5,52.2z"/>
	</g>
	<g>
		<circle fill="#E99415" cx="124" cy="59" r="1.8"/>
	</g>
	<g>
		<circle fill="#D71718" cx="127.3" cy="55.5" r="1.8"/>
	</g>
	<g>
		<circle fill="#D71718" cx="127.3" cy="55.5" r="1.8"/>
	</g>
	<g>
		<path fill="#8ABA29" d="M120.5,57.5c-1,0-1.8-0.7-1.8-1.7c0-1,0.7-1.8,1.7-1.8c1,0,1.8,0.7,1.8,1.7
			C122.3,56.7,121.5,57.5,120.5,57.5z"/>
	</g>
	<g>
		<path fill="#B5B5B6" d="M117.7,51.2c0,0.3-0.2,0.6-0.6,0.6l-2.9,0.1c-0.3,0-0.6-0.2-0.6-0.6l0-0.2c0-0.3,0.2-0.6,0.6-0.6l2.9-0.1
			c0.3,0,0.6,0.2,0.6,0.6L117.7,51.2z"/>
	</g>
	<g>
		<path fill="#1D2029" d="M120.6,48.2c-0.3,0-0.5-0.4-0.5-0.6l-0.1-9.6c0-0.3,0.1-0.7,0.2-1c0.1-0.3,0.3-0.6,0.5-0.8
			c0.2-0.2,0.5-0.4,0.8-0.6c0.3-0.1,0.6-0.2,1-0.2c0.3,0,0.7,0,1,0.2c0.3,0.1,0.6,0.3,0.8,0.5c0.2,0.2,0.4,0.5,0.6,0.8
			c0.1,0.3,0.2,0.6,0.2,1l0.1,4.1c0,0.2,0,0.4,0.1,0.6c0.1,0.2,0.2,0.3,0.3,0.5c0.1,0.1,0.3,0.3,0.5,0.3c0.2,0.1,0.4,0.1,0.6,0.1
			c0.2,0,0.4,0,0.6-0.1c0.2-0.1,0.3-0.2,0.5-0.3c0.1-0.1,0.3-0.3,0.3-0.5c0.1-0.2,0.1-0.4,0.1-0.6l-0.1-7.8l-0.1-4.8
			c0-0.3,0.2-0.5,0.5-0.5c0.3,0,0.5,0.2,0.5,0.5l0.1,4.8l0.1,7.8c0,0.3-0.1,0.7-0.2,1c-0.1,0.3-0.3,0.6-0.5,0.8
			c-0.2,0.2-0.5,0.4-0.8,0.6c-0.3,0.1-0.6,0.2-1,0.2c-0.4,0-0.7-0.1-1-0.2c-0.3-0.1-0.6-0.3-0.8-0.5c-0.2-0.2-0.4-0.5-0.6-0.8
			c-0.1-0.3-0.2-0.6-0.2-1l-0.1-4.1c0-0.2,0-0.4-0.1-0.6c-0.1-0.2-0.2-0.3-0.3-0.5c-0.1-0.1-0.3-0.3-0.5-0.3
			c-0.2-0.1-0.4-0.1-0.6-0.1c-0.2,0-0.4,0-0.6,0.1c-0.2,0.1-0.3,0.2-0.5,0.3c-0.1,0.1-0.3,0.3-0.3,0.5c-0.1,0.2-0.1,0.4-0.1,0.6
			l0.1,9.7C121.1,47.8,120.9,48.2,120.6,48.2C120.6,48.2,120.6,48.2,120.6,48.2z"/>
	</g>
</g>
<g>
	<g>
		<g>
			<polygon fill="#808081" points="105.9,114.1 106.7,121.1 98.3,121.1 99.1,114.1 			"/>
			<path fill="#1D2029" d="M107.4,121.8h-9.9l0.9-8.4h8L107.4,121.8z M99.1,120.5h6.9l-0.6-5.7h-5.6L99.1,120.5z"/>
		</g>
		<g>
			<rect x="95.1" y="120.8" fill="#CCCCCC" width="14.7" height="2.1"/>
			<path fill="#1D2029" d="M110.5,123.5H94.5v-3.4h16.1L110.5,123.5L110.5,123.5z M95.8,122.2h13.4v-0.7H95.8
				C95.8,121.5,95.8,122.2,95.8,122.2z"/>
		</g>
		<g>
			<g>
				<path fill="#595758" d="M120.9,90c0-1,0.6-2.6-0.3-2.6H85.1c-0.9,0-3.2,1.5-3.2,2.6v19.4h39V90z"/>
				<g>
					<path fill="#1A1A1A" d="M85.1,87.4c-0.9,0-3.2,1.5-3.2,2.6v19.4H95l12.9-22H85.1z"/>
				</g>
				<path fill="#1D2029" d="M121.9,110.4h-40V90c0-1.5,1.9-2.6,3.2-2.6h35.5c1.3,0,1.3,1.2,1.3,2.6V110.4z M82.9,109.4h38V90
					c0-0.7,0.3-1.6-0.3-1.6H85.1c-0.6,0-2.2,1-2.2,1.6V109.4z"/>
			</g>
			<g>
				<path fill="#CCCCCC" d="M81.9,109.4v4.2c0,1,2.2,0.8,3.2,0.8h35.5c0.9,0,0.3,0.2,0.3-0.8v-4.2H81.9z"/>
				<g>
					<path fill="#999999" d="M81.9,109.4v4.2c0,1,2.2,0.8,3.2,0.8h6.5l3.4-5H81.9z"/>
				</g>
				<path fill="#1D2029" d="M120.5,115.4H85.1c-1.3,0-3.2-0.4-3.2-1.8v-4.2h40v4.2C121.9,115.1,121.8,115.4,120.5,115.4z
					 M82.9,110.4v3.2c0,0.7,1.6,0.8,2.2,0.8h35.5c0.6,0,0.3-0.1,0.3-0.8v-3.2H82.9z"/>
			</g>
		</g>
	</g>
	<g>
		<g>
			<path fill="#E35248" d="M133.5,113.9c0,1.4-1.1,2.6-2.4,2.6h-17.5c-1.3,0-2.4-1.1-2.4-2.6v-12.1c0-1.4,1.1-2.6,2.4-2.6h17.5
				c1.3,0,2.4,1.1,2.4,2.6V113.9L133.5,113.9z"/>
			<g>
				<path fill="#E1352E" d="M131.5,99.4h-4.7l-11.9,17h16.6c1.3,0,1.4,0,1.4-1.4v-12.1C132.9,101.5,132.8,99.4,131.5,99.4z"/>
			</g>
			<path fill="#1D2029" d="M131,116.9h-17.3c-1.5,0-2.8-1.3-2.8-3v-12.1c0-1.6,1.2-3,2.8-3H131c1.5,0,2.8,1.3,2.8,3v12.1
				C133.8,115.6,132.5,116.9,131,116.9z M113.7,99.7c-1.1,0-2,1-2,2.1v12.1c0,1.2,0.9,2.1,2,2.1H131c1.1,0,2-1,2-2.1v-12.1
				c0-1.2-0.9-2.1-2-2.1H113.7z"/>
		</g>
		<polygon fill="#FFFFFF" points="118.5,102.2 118.5,113.2 126,107.7 		"/>
		<polygon fill="#F0EFEF" points="118.5,107.5 118.5,113.2 126,107.7 		"/>
	</g>
	<g>
		<g>
			<g>
				<g>
					<path fill="#C59D62" d="M120.9,132.9c0,1.7-0.1,2.5-1.7,2.5h-14.4c-1.6,0-3.8-0.8-3.8-2.5V114c0-1.7,2.2-4.6,3.8-4.6h14.4
						c1.6,0,1.7,2.9,1.7,4.6V132.9z"/>
					<g>
						<path fill="#A08155" d="M118.6,109.4h-0.2l-15,25.4c0.4,0.2,0.8,0.6,1.3,0.6h14c1.6,0,2.2-0.4,2.2-2.2V114
							C120.9,112.3,120.3,109.4,118.6,109.4z"/>
					</g>
				</g>
				<g>
					<path fill="#1D2029" d="M121.9,133.6c0,2-0.9,2.8-2.7,2.8h-15.5c-1.8,0-3.8-0.7-3.8-2.8v-19.6c0-2,2-4.6,3.8-4.6h15.5
						c1.8,0,2.7,2.6,2.7,4.6V133.6z M120.9,113.9c0-1.4-0.9-3.5-2.4-3.5h-14.8c-1.4,0-2.8,2.1-2.8,3.5v19.8c0,1.4,1.4,1.7,2.8,1.7
						h14.8c1.4,0,2.4-0.2,2.4-1.7V113.9z"/>
				</g>
			</g>
			<g>
				<g>
					<path fill="#F2EFE6" d="M119.9,129.4h-15.5c-1.5,0-4.6,1.5-4.6,3.1v0.8c0,1.5,3.1,3.1,4.6,3.1h15.5c1.5,0,0.9-2,0.9-3.6v-0.4
						v-2.8v-2.8C120.9,128.5,121.5,129.4,119.9,129.4z"/>
					<path fill="#D8D6CD" d="M119.9,129.4h-1.1v3.1v0.4c0,1.5,0.4,3.6-1.2,3.6h2.2c1.5,0,0.9-2,0.9-3.6v-0.4v-2.8v-2.8
						C120.9,128.5,121.5,129.4,119.9,129.4z"/>
					<path fill="#1D2029" d="M119.9,136.4h-7.8h-7.7c-0.9,0-2.5,0.2-3.3-0.6s-1.3-1.7-1.3-2.6v-0.4v-0.4c0-0.9,0.8-2.1,1.6-2.7
						c0.8-0.6,2.1-1.4,3-1.4h7.7h7.8c0.6,0,1-0.2,1.3-0.6c0.3-0.4,0.4-0.4,0.4-1.4h0.4h-0.2v3.7v2.7c0,0.9,0.1,1.6-0.2,2.5
						C121.2,136.2,120.9,136.4,119.9,136.4z M104.4,129.4c-0.7,0-1.7,0.7-2.3,1.1c-0.6,0.4-1.3,1.4-1.3,1.9v0.4v0.4
						c0,0.6,0.4,1.3,1,1.9c0.6,0.6,2,0.2,2.6,0.2h7.7h7.8c0.5,0,0.6-0.1,0.9-0.8c0.2-0.7,0.1-1.1,0.1-1.8v-1.5v-1.5
						c0,0.2,0.1-0.1-0.2-0.1c-0.3,0.1-0.4-0.4-0.7-0.4h-7.8L104.4,129.4L104.4,129.4z"/>
				</g>
				<g>
					<path fill="#FFFFFF" d="M120.9,132.4v-2.5c0,1.5,0.6,3.5-0.9,3.5h-16.1"/>
					<path fill="#1D2029" d="M119.9,133.4h-15.1c-0.3,0-0.6-0.2-0.6-0.5s0.2-0.5,0.6-0.5h15.1c1.2,0,1.7-3,1.7-4h0.3v4.3
						c0,0.3,0.2,0.6-0.1,0.6c-0.2,0-0.1-0.3-0.2-0.4C121,133.3,120.7,133.4,119.9,133.4z"/>
				</g>
			</g>
		</g>
		<g>
			<g>
				<path fill="#1D2029" d="M103,112c-0.1-0.1-0.2-0.2-0.2-0.4l0,0c0-0.1,0.1-0.3,0.2-0.4l0,0c0.1-0.1,0.2-0.2,0.4-0.2l0,0
					c0.1,0,0.3,0.1,0.4,0.2l0,0c0.1,0.1,0.2,0.2,0.2,0.4l0,0c0,0.1-0.1,0.3-0.2,0.4l0,0c-0.1,0.1-0.2,0.2-0.4,0.2l0,0
					C103.3,112.2,103.1,112.1,103,112z"/>
			</g>
			<g>
				<path fill="#1D2029" d="M103.4,116.6c-0.3,0-0.5-0.2-0.5-0.6v-2.2c0-0.3,0.2-0.6,0.5-0.6c0.3,0,0.5,0.2,0.5,0.6v2.2
					C103.9,116.4,103.7,116.6,103.4,116.6z"/>
			</g>
			<g>
				<path fill="#1D2029" d="M103,118.7c-0.1-0.1-0.2-0.2-0.2-0.4l0,0c0-0.1,0.1-0.3,0.2-0.4l0,0c0.1-0.1,0.2-0.2,0.4-0.2l0,0
					c0.1,0,0.3,0.1,0.4,0.2l0,0c0.1,0.1,0.2,0.2,0.2,0.4l0,0c0,0.1-0.1,0.3-0.2,0.4l0,0c-0.1,0.1-0.2,0.2-0.4,0.2l0,0
					C103.3,118.9,103.1,118.8,103,118.7z"/>
			</g>
			<g>
				<path fill="#1D2029" d="M103,125.4c-0.1-0.1-0.2-0.2-0.2-0.4l0,0c0-0.1,0.1-0.3,0.2-0.4l0,0c0.1-0.1,0.2-0.2,0.4-0.2l0,0
					c0.1,0,0.3,0.1,0.4,0.2l0,0c0.1,0.1,0.2,0.2,0.2,0.4l0,0c0,0.1-0.1,0.3-0.2,0.4l0,0c-0.1,0.1-0.2,0.2-0.4,0.2l0,0
					C103.3,125.6,103.1,125.5,103,125.4z"/>
			</g>
			<g>
				<path fill="#1D2029" d="M103,127.6c-0.1-0.1-0.2-0.2-0.2-0.4l0,0c0-0.1,0.1-0.3,0.2-0.4l0,0c0.1-0.1,0.2-0.2,0.4-0.2l0,0
					c0.1,0,0.3,0.1,0.4,0.2l0,0c0.1,0.1,0.2,0.2,0.2,0.4l0,0c0,0.1-0.1,0.3-0.2,0.4l0,0c-0.1,0.1-0.2,0.2-0.4,0.2l0,0
					C103.3,127.8,103.1,127.7,103,127.6z"/>
			</g>
			<g>
				<path fill="#1D2029" d="M103.4,123.3c-0.3,0-0.5-0.2-0.5-0.6v-2.2c0-0.3,0.2-0.6,0.5-0.6c0.3,0,0.5,0.2,0.5,0.6v2.2
					C103.9,123.1,103.7,123.3,103.4,123.3z"/>
			</g>
		</g>
	</g>
	<rect x="115.4" y="109.9" fill="#E99415" stroke="#1D2029" stroke-miterlimit="10" width="2" height="19"/>
</g>
<g>
	<g>
		<path fill="#E9EAE2" d="M192.6,128.4c0,2.2-1.8,4-4,4h-33c-2.2,0-4-1.8-4-4v-33c0-2.2,1.8-4,4-4h33c2.2,0,4,1.8,4,4V128.4z"/>
		<path fill="#C9CACA" d="M189.9,91.4h-4c1.8,0,2.8,1.8,2.8,4v33c0,2.2-1,4-2.8,4h4c1.8,0,2.7-1.8,2.7-4v-33
			C192.6,93.2,191.7,91.4,189.9,91.4z"/>
		<path fill="none" stroke="#1D2029" stroke-width="2" stroke-miterlimit="10" d="M192.6,128.4c0,2.2-1.8,4-4,4h-33
			c-2.2,0-4-1.8-4-4v-33c0-2.2,1.8-4,4-4h33c2.2,0,4,1.8,4,4V128.4z"/>
	</g>
	<line fill="none" stroke="#1D2029" stroke-linecap="round" stroke-miterlimit="10" x1="155.1" y1="95.4" x2="155.1" y2="97.4"/>
	<line fill="none" stroke="#1D2029" stroke-linecap="round" stroke-miterlimit="10" x1="157.1" y1="95.4" x2="157.1" y2="97.4"/>
	<line fill="none" stroke="#1D2029" stroke-linecap="round" stroke-miterlimit="10" x1="159.1" y1="95.4" x2="159.1" y2="97.4"/>
	<line fill="none" stroke="#1D2029" stroke-linecap="round" stroke-miterlimit="10" x1="161.1" y1="95.4" x2="161.1" y2="97.4"/>
	<line fill="none" stroke="#1D2029" stroke-linecap="round" stroke-miterlimit="10" x1="163.1" y1="95.4" x2="163.1" y2="97.4"/>
	<line fill="none" stroke="#1D2029" stroke-linecap="round" stroke-miterlimit="10" x1="165.1" y1="95.4" x2="165.1" y2="97.4"/>
	<line fill="none" stroke="#1D2029" stroke-linecap="round" stroke-miterlimit="10" x1="167.1" y1="95.4" x2="167.1" y2="97.4"/>
	<line fill="none" stroke="#1D2029" stroke-linecap="round" stroke-miterlimit="10" x1="169.1" y1="95.4" x2="169.1" y2="97.4"/>
	<line fill="none" stroke="#1D2029" stroke-linecap="round" stroke-miterlimit="10" x1="171.1" y1="95.4" x2="171.1" y2="97.4"/>
	<line fill="none" stroke="#1D2029" stroke-linecap="round" stroke-miterlimit="10" x1="173.1" y1="95.4" x2="173.1" y2="97.4"/>
	<line fill="none" stroke="#1D2029" stroke-linecap="round" stroke-miterlimit="10" x1="175.1" y1="95.4" x2="175.1" y2="97.4"/>
	<line fill="none" stroke="#1D2029" stroke-linecap="round" stroke-miterlimit="10" x1="177.1" y1="95.4" x2="177.1" y2="97.4"/>
	<line fill="none" stroke="#1D2029" stroke-linecap="round" stroke-miterlimit="10" x1="179.1" y1="95.4" x2="179.1" y2="97.4"/>
	<line fill="none" stroke="#1D2029" stroke-linecap="round" stroke-miterlimit="10" x1="181.1" y1="95.4" x2="181.1" y2="97.4"/>
	<line fill="none" stroke="#1D2029" stroke-linecap="round" stroke-miterlimit="10" x1="183.1" y1="95.4" x2="183.1" y2="97.4"/>
	<line fill="none" stroke="#1D2029" stroke-linecap="round" stroke-miterlimit="10" x1="185.1" y1="95.4" x2="185.1" y2="97.4"/>
	<line fill="none" stroke="#1D2029" stroke-linecap="round" stroke-miterlimit="10" x1="187.1" y1="95.4" x2="187.1" y2="97.4"/>
	<line fill="none" stroke="#1D2029" stroke-linecap="round" stroke-miterlimit="10" x1="189.1" y1="95.4" x2="189.1" y2="97.4"/>
	<g>
		<path fill="#49B0C1" d="M156.6,131.4v-13.1c0-3,2.2-5.4,5-5.4l0,0c2.8,0,5,2.4,5,5.4v13.1"/>
		<path fill="#1D2029" d="M167.1,131.9c-0.3,0-0.5-0.2-0.5-0.5v-13.1c0-2.7-2-4.9-4.5-4.9s-4.5,2.2-4.5,4.9v13.1
			c0,0.3-0.2,0.5-0.5,0.5s-0.5-0.2-0.5-0.5v-13.1c0-3.3,2.5-5.9,5.5-5.9s5.5,2.7,5.5,5.9v13.1C167.6,131.7,167.4,131.9,167.1,131.9z
			"/>
	</g>
	<g>
		<rect x="171.6" y="114.4" fill="#49B0C1" width="15" height="12"/>
		<polygon fill="#1D2029" points="170.6,113.4 170.6,114.4 172.1,114.4 186.6,114.4 186.6,126.4 186.6,127.4 187.6,127.4 
			187.6,113.4 		"/>
		<polygon fill="#1D2029" points="171.6,126.4 171.6,114.4 170.6,114.4 170.6,127.4 186.6,127.4 186.6,126.4 		"/>
	</g>
	<g>
		<path fill="#C9CACA" d="M152.6,104.4v6.1c1-0.5,1-1.2,1-1.9c0,1.7,1.6,3.1,3.4,3.1c1.8,0,3.3-1.4,3.3-3.1c0,1.7,1.4,3.1,3.2,3.1
			c1.8,0,3.2-1.4,3.2-3.1c0,1.7,1.4,3.1,3.2,3.1s3.2-1.4,3.2-3.1c0,1.7,1.4,3.1,3.2,3.1c1.8,0,3.2-1.4,3.2-3.1
			c0,1.7,1.4,3.1,3.2,3.1s3.2-1.4,3.2-3.1c0,1.7,1.1,3.1,2.9,3.1c1.5,0,2.7-0.9,2.7-2.2v-5H152.6z"/>
	</g>
	<g>
		<path fill="#E58B13" d="M146.6,103.4v4.2c0,1.7,1.9,3.1,3.6,3.1s3.4-1.4,3.4-3.1c0,1.7,1.5,3.1,3.2,3.1c1.8,0,3.2-1.4,3.2-3.1
			c0,1.7,1.4,3.1,3.2,3.1c1.8,0,3.1-1.4,3.1-3.1c0,1.7,1.4,3.1,3.1,3.1c1.8,0,3.1-1.4,3.1-3.1c0,1.7,1.4,3.1,3.1,3.1
			c1.8,0,3.1-1.4,3.1-3.1c0,1.7,1.4,3.1,3.1,3.1c1.8,0,3.1-1.4,3.1-3.1c0,1.7,1.4,3.1,3.1,3.1c1.8,0,3.1-1.4,3.1-3.1
			c0,1.7,0.9,3.1,2.6,3.1c1.8,0,2.6-1.4,2.6-3.1v-4.2"/>
		<path fill="#1D2029" d="M194.3,111.2c-1.3,0-2.4-0.7-3-1.7c-0.6,1-1.7,1.7-3.1,1.7s-2.5-0.7-3.1-1.7c-0.6,1-1.8,1.7-3.1,1.7
			c-1.3,0-2.5-0.7-3.1-1.7c-0.6,1-1.8,1.7-3.1,1.7s-2.5-0.7-3.1-1.7c-0.6,1-1.8,1.7-3.1,1.7s-2.5-0.7-3.1-1.7
			c-0.6,1-1.8,1.7-3.1,1.7s-2.5-0.7-3.1-1.7c-0.6,1-1.8,1.7-3.1,1.7s-2.5-0.7-3.1-1.7c-0.6,1-2,1.7-3.4,1.7c-2,0-3.9-1.6-3.9-3.6
			v-4.2h1v4.2c0,1.4,1.4,2.6,2.9,2.6s2.8-1.1,2.8-2.6c0-0.3,0.3-0.5,0.6-0.5c0.3,0,0.5,0.2,0.5,0.5c0,1.4,1.2,2.6,2.6,2.6
			s2.6-1.1,2.6-2.6c0-0.3,0.2-0.5,0.5-0.5s0.5,0.2,0.5,0.5c0,1.4,1.2,2.6,2.6,2.6s2.6-1.1,2.6-2.6c0-0.3,0.2-0.5,0.5-0.5
			c0.3,0,0.5,0.2,0.5,0.5c0,1.4,1.2,2.6,2.6,2.6s2.6-1.1,2.6-2.6c0-0.3,0.2-0.5,0.5-0.5s0.5,0.2,0.5,0.5c0,1.4,1.2,2.6,2.6,2.6
			s2.6-1.1,2.6-2.6c0-0.3,0.2-0.5,0.5-0.5s0.5,0.2,0.5,0.5c0,1.4,1.2,2.6,2.6,2.6s2.6-1.1,2.6-2.6c0-0.3,0.2-0.5,0.5-0.5
			s0.5,0.2,0.5,0.5c0,1.4,1.2,2.6,2.6,2.6s2.6-1.1,2.6-2.6c0-0.3,0.2-0.5,0.5-0.5s0.5,0.2,0.5,0.5c0,1.4,0.9,2.6,2.4,2.6
			s2.4-1.1,2.4-2.6v-4.2h1v4.2C197.6,109.6,196.3,111.2,194.3,111.2z"/>
	</g>
	<g>
		<polygon fill="#E9BC1B" points="198.1,104.1 146.6,103.9 151.7,97.6 193.1,97.7 		"/>
		<path fill="#1D2029" d="M198.1,104.4C198.1,104.4,198.1,104.4,198.1,104.4l-51.5-0.1c-0.2,0-0.4-0.1-0.5-0.2
			c-0.1-0.2-0.1-0.4,0.1-0.5l5.1-6.2c0.1-0.1,0.2,0,0.4,0c0,0,0,0,0,0l41.4,0c0.2,0,0.3,0,0.4,0.1l5,6.3c0.1,0.1,0.1,0.3,0.1,0.4
			C198.5,104.4,198.3,104.4,198.1,104.4z M147.7,103.4l49.4,0.1l-4.2-5.3L152,98.1L147.7,103.4z"/>
	</g>
	<polyline fill="none" stroke="#FFFFFF" stroke-linecap="round" stroke-linejoin="round" stroke-miterlimit="10" points="
		184.6,119.2 184.7,119.4 184.8,119.5 185,119.6 185.1,119.8 185.3,119.9 	"/>
	<polyline fill="none" stroke="#FFFFFF" stroke-linecap="round" stroke-linejoin="round" stroke-miterlimit="10" points="
		180.8,115.4 180.9,115.6 181.1,115.7 181.2,115.8 181.3,116 181.5,116.1 181.6,116.3 181.8,116.4 181.9,116.6 182,116.7 
		182.2,116.8 182.3,117 182.5,117.1 182.6,117.3 182.7,117.4 182.9,117.5 183,117.7 	"/>
	<polyline fill="none" stroke="#FFFFFF" stroke-linecap="round" stroke-linejoin="round" stroke-miterlimit="10" points="
		180.8,119.4 181.1,119.7 181.3,120 181.6,120.2 181.9,120.5 182.1,120.8 182.4,121 182.7,121.3 182.9,121.6 183.2,121.8 
		183.5,122.1 183.7,122.4 184,122.7 184.3,122.9 184.5,123.2 184.8,123.5 185.1,123.7 185.3,124 	"/>
	<polyline fill="none" stroke="#FFFFFF" stroke-linecap="round" stroke-linejoin="round" stroke-miterlimit="10" points="
		176.8,115.4 177,115.7 177.3,116 177.6,116.2 177.8,116.5 178.1,116.8 178.4,117 178.6,117.3 178.9,117.6 179.2,117.8 179.4,118.1 
			"/>
	<polyline fill="none" stroke="#FFFFFF" stroke-linecap="round" stroke-linejoin="round" stroke-miterlimit="10" points="
		176.6,119.3 176.9,119.6 177.2,119.8 177.5,120.1 177.7,120.4 178,120.7 178.3,120.9 178.5,121.2 178.8,121.5 179.1,121.7 
		179.4,122 179.6,122.3 179.9,122.6 180.2,122.8 180.4,123.1 180.7,123.4 181,123.6 181.3,123.9 181.5,124.2 181.8,124.5 
		182.1,124.7 182.3,125 	"/>
	<polyline fill="none" stroke="#FFFFFF" stroke-linecap="round" stroke-linejoin="round" stroke-miterlimit="10" points="
		173.7,116.3 173.9,116.6 174.2,116.9 174.5,117.1 174.8,117.4 175,117.7 175.3,118 	"/>
	<polyline fill="none" stroke="#FFFFFF" stroke-linecap="round" stroke-linejoin="round" stroke-miterlimit="10" points="
		165.9,123.1 165.9,123.3 165.9,123.5 165.9,123.7 165.9,123.9 165.9,124.1 	"/>
</g>
</svg>
